<!-- Generator: Avocode 2.2.1-ae398a7 - http://avocode.com -->
<svg height="100" width="159" xmlns:xlink="http://www.w3.org/1999/xlink" xmlns="http://www.w3.org/2000/svg" viewBox="0 0 159 100">
    <path fill="#ffffff" fill-rule="evenodd" d="M 28.88 23.87 C 33.16 23.87 35.28 27 35.28 31.1 C 35.28 31.89 35.19 32.62 35.1 32.98 L 26.09 32.98 C 26.48 35.26 28 36.26 30 36.26 C 31.13 36.26 32.16 35.92 33.25 35.26 L 34.74 37.96 C 33.19 39.02 31.19 39.66 29.4 39.66 C 25.09 39.66 21.78 36.74 21.78 31.77 C 21.78 26.88 25.27 23.87 28.88 23.87 L 28.88 23.87 Z M 31.49 30.22 C 31.49 28.49 30.76 27.27 28.97 27.27 C 27.58 27.27 26.36 28.21 26.06 30.22 L 31.49 30.22 L 31.49 30.22 Z M 31.49 30.22" />
    <path fill="#ffffff" fill-rule="evenodd" d="M 38.44 27.73 L 36.38 27.73 L 36.38 24.42 L 38.68 24.24 L 39.2 20.23 L 42.9 20.23 L 42.9 24.24 L 46.51 24.24 L 46.51 27.73 L 42.9 27.73 L 42.9 33.77 C 42.9 35.47 43.66 36.17 44.84 36.17 C 45.33 36.17 45.87 36.02 46.27 35.86 L 46.97 39.11 C 46.18 39.35 45.08 39.66 43.63 39.66 C 39.9 39.66 38.44 37.32 38.44 33.83 L 38.44 27.73" />
    <path fill="#ff5000" fill-rule="evenodd" d="M 57.01 29.61 C 56.92 28.27 56.25 27.42 54.64 27.42 C 53.37 27.42 50.64 28.79 50.64 28.79 C 50.64 28.79 48.15 29.81 48.15 25.43 C 48.15 23.88 53.13 23.87 55.49 23.87 C 59.35 23.87 61.47 26.06 61.47 30.67 L 61.47 39.29 L 57.83 39.29 L 57.5 37.75 L 57.41 37.75 C 56.13 38.87 54.7 39.66 53.01 39.66 C 50.27 39.66 48.54 37.65 48.54 35.1 C 48.54 31.95 51.06 30.22 57.01 29.61 L 57.01 29.61 Z M 54.52 36.2 C 55.55 36.2 56.22 35.71 57.01 34.92 L 57.01 32.28 C 53.82 32.71 52.79 33.62 52.79 34.77 C 52.79 35.74 53.46 36.2 54.52 36.2 L 54.52 36.2 Z M 54.52 36.2" />
    <path fill="#ff5000" fill-rule="evenodd" d="M 69.76 40.48 L 69.76 44.88 L 65.3 44.88 L 65.3 24.24 L 68.94 24.24 L 69.24 25.72 L 69.36 25.72 C 70.54 24.66 72.06 23.87 73.64 23.87 C 77.28 23.87 79.53 26.88 79.53 31.52 C 79.53 36.68 76.43 39.66 73.18 39.66 C 71.88 39.66 70.67 39.08 69.6 38.08 L 69.76 40.48 L 69.76 40.48 Z M 72.15 36.02 C 73.7 36.02 74.94 34.68 74.94 31.58 C 74.94 28.88 74.13 27.52 72.33 27.52 C 71.42 27.52 70.64 27.94 69.76 28.88 L 69.76 35.04 C 70.54 35.77 71.39 36.02 72.15 36.02 L 72.15 36.02 Z M 72.15 36.02" />
    <path fill="#ff5000" fill-rule="evenodd" d="M 87.14 40.48 L 87.14 44.88 L 82.68 44.88 L 82.68 24.24 L 86.32 24.24 L 86.63 25.72 L 86.75 25.72 C 87.93 24.66 89.45 23.87 91.03 23.87 C 94.67 23.87 96.91 26.88 96.91 31.52 C 96.91 36.68 93.82 39.66 90.57 39.66 C 89.27 39.66 88.05 39.08 86.99 38.08 L 87.14 40.48 L 87.14 40.48 Z M 89.54 36.02 C 91.09 36.02 92.33 34.68 92.33 31.58 C 92.33 28.88 91.51 27.52 89.72 27.52 C 88.81 27.52 88.02 27.94 87.14 28.88 L 87.14 35.04 C 87.93 35.77 88.78 36.02 89.54 36.02 L 89.54 36.02 Z M 89.54 36.02" />
    <path fill="#ffffff" fill-rule="evenodd" d="M 106.29 23.87 C 110.57 23.87 112.69 27 112.69 31.1 C 112.69 31.89 112.6 32.62 112.51 32.98 L 103.5 32.98 C 103.89 35.26 105.41 36.26 107.41 36.26 C 108.54 36.26 109.57 35.92 110.66 35.26 L 112.15 37.96 C 110.6 39.02 108.6 39.66 106.81 39.66 C 102.5 39.66 99.19 36.74 99.19 31.77 C 99.19 26.88 102.68 23.87 106.29 23.87 L 106.29 23.87 Z M 108.9 30.22 C 108.9 28.49 108.17 27.27 106.38 27.27 C 104.99 27.27 103.77 28.21 103.47 30.22 L 108.9 30.22 L 108.9 30.22 Z M 108.9 30.22" />
    <path fill="#ffffff" fill-rule="evenodd" d="M 123.38 29.61 C 123.28 28.27 122.62 27.42 121.01 27.42 C 119.73 27.42 118.46 27.94 117 28.79 L 115.43 25.85 C 117.34 24.69 119.49 23.87 121.86 23.87 C 125.71 23.87 127.84 26.06 127.84 30.67 L 127.84 39.29 L 124.2 39.29 L 123.86 37.75 L 123.77 37.75 C 122.5 38.87 121.07 39.66 119.37 39.66 C 116.64 39.66 114.91 37.65 114.91 35.1 C 114.91 31.95 117.43 30.22 123.38 29.61 L 123.38 29.61 Z M 120.89 36.2 C 121.92 36.2 122.59 35.71 123.38 34.92 L 123.38 32.28 C 120.19 32.71 119.16 33.62 119.16 34.77 C 119.16 35.74 119.83 36.2 120.89 36.2 L 120.89 36.2 Z M 120.89 36.2" />
    <path fill="#ffffff" fill-rule="evenodd" d="M 132.33 34.77 C 133.69 35.8 134.94 36.35 136.21 36.35 C 137.55 36.35 138.12 35.86 138.12 35.07 C 138.12 34.07 136.61 33.62 135.06 33.01 C 133.24 32.31 131.08 31.07 131.08 28.58 C 131.08 25.78 133.36 23.87 136.85 23.87 C 139.16 23.87 140.85 24.81 142.16 25.78 L 140.16 28.46 C 139.06 27.67 138.03 27.18 136.97 27.18 C 135.82 27.18 135.27 27.61 135.27 28.37 C 135.27 29.34 136.67 29.7 138.21 30.28 C 140.13 30.98 142.28 32.04 142.28 34.8 C 142.28 37.53 140.13 39.66 136.09 39.66 C 134.12 39.66 131.84 38.81 130.33 37.56 L 132.33 34.77" />
    <path fill="#ffffff" fill-rule="evenodd" d="M 146.44 41.66 C 147.93 41.66 148.68 40.87 149.08 39.69 L 149.29 38.9 L 143.49 24.24 L 147.99 24.24 L 150.14 30.7 C 150.57 32.07 150.93 33.5 151.32 34.98 L 151.45 34.98 C 151.78 33.56 152.11 32.13 152.48 30.7 L 154.3 24.24 L 158.58 24.24 L 153.36 39.45 C 151.93 43.24 150.32 45.18 146.77 45.18 C 145.86 45.18 145.25 45.06 144.65 44.88 L 145.44 41.48 C 145.71 41.54 146.1 41.66 146.44 41.66" />
    <path fill="#ff5000" fill-rule="evenodd" d="M 35.18 0.85 C 35.18 0.85 50.53 0.85 50.53 16.21 L 50.53 25.43 C 50.53 25.43 50.62 26.12 50.05 26.12 C 50.05 26.12 50.04 26.12 50.04 26.12 L 49.48 26.12 C 49.48 26.12 49 26.11 49 25.43 L 49 17.75 C 49 17.75 50.53 2.39 33.65 2.39 L 18.3 2.39 C 18.3 2.39 17.93 2.35 17.32 2.35 C 13.94 2.35 2.95 3.45 2.95 17.75 L 2.95 82.25 C 2.95 82.25 1.41 97.59 18.3 97.61 L 33.65 97.61 C 33.65 97.61 34.01 97.65 34.63 97.65 C 38.01 97.65 49 96.55 49 82.25 L 49 73.04 C 49 73.04 48.92 62.26 41.97 62.26 C 41.76 62.26 41.54 62.27 41.32 62.29 C 41.32 62.29 39.17 62.45 36.36 62.45 C 32.7 62.45 27.92 62.18 25.29 60.92 C 20.05 58.36 17.7 49.2 25.97 46.93 C 31 45.58 35 45.02 38.18 45.02 C 50.53 45.02 50.53 53.44 50.53 56.6 L 50.53 83.79 C 50.53 83.79 50.53 99.15 35.18 99.15 L 16.76 99.15 C 16.76 99.15 1.41 99.15 1.41 83.79 L 1.41 16.21 C 1.41 16.21 1.41 0.85 16.76 0.85 L 35.18 0.85 M 35.18 0 L 16.76 0 C 8.4 0 4.43 4.43 2.57 8.15 C 0.58 12.12 0.56 16.05 0.56 16.21 L 0.56 83.79 C 0.56 92.16 4.99 96.13 8.71 97.99 C 12.68 99.98 16.6 100 16.76 100 L 35.18 100 C 43.55 100 47.52 95.57 49.38 91.85 C 51.36 87.88 51.39 83.95 51.39 83.79 L 51.39 56.6 C 51.39 54.95 51.39 51.88 49.72 49.18 C 47.66 45.85 43.78 44.17 38.18 44.17 C 34.72 44.17 30.54 44.82 25.75 46.1 C 23.89 46.62 22.42 47.48 21.38 48.67 C 20.43 49.75 19.86 51.1 19.72 52.57 C 19.39 56.16 21.62 60.08 24.92 61.69 C 27.16 62.76 31.01 63.3 36.36 63.3 C 39.17 63.3 41.3 63.14 41.39 63.14 C 41.39 63.14 41.4 63.14 41.4 63.14 C 41.59 63.12 41.78 63.11 41.97 63.11 C 44.43 63.11 46.22 64.72 47.27 67.88 C 48.11 70.42 48.15 73.02 48.15 73.04 L 48.15 82.25 C 48.15 88.06 46.29 92.21 42.62 94.6 C 39.67 96.51 36.35 96.79 34.63 96.79 C 34.07 96.79 33.74 96.76 33.73 96.76 C 33.7 96.76 33.68 96.76 33.65 96.76 L 18.3 96.76 C 13.3 96.75 9.51 95.36 7.04 92.62 C 3.24 88.41 3.79 82.4 3.8 82.34 C 3.8 82.31 3.8 82.28 3.8 82.25 L 3.8 17.75 C 3.8 11.94 5.66 7.79 9.33 5.4 C 12.27 3.49 15.6 3.21 17.32 3.21 C 17.88 3.21 18.21 3.24 18.21 3.24 C 18.24 3.24 18.27 3.24 18.3 3.24 L 33.65 3.24 C 38.64 3.24 42.43 4.63 44.9 7.37 C 48.71 11.58 48.16 17.6 48.15 17.66 C 48.15 17.69 48.15 17.72 48.15 17.75 L 48.15 25.43 C 48.15 26.53 48.93 26.96 49.45 26.98 C 49.46 26.98 49.47 26.98 49.48 26.98 L 50.03 26.98 C 50.04 26.98 50.05 26.98 50.05 26.98 C 50.44 26.98 50.79 26.83 51.03 26.55 C 51.4 26.14 51.4 25.61 51.39 25.39 L 51.39 16.21 C 51.39 7.84 46.96 3.87 43.24 2.01 C 39.27 0.02 35.35 0 35.18 0" />
</svg>