<!-- Generator: Avocode 2.2.1-ae398a7 - http://avocode.com -->
<svg height="64" width="63" xmlns:xlink="http://www.w3.org/1999/xlink" xmlns="http://www.w3.org/2000/svg" viewBox="0 0 63 64"  >
    <path fill="#ff5000" fill-rule="evenodd"  d="M 31 60 C 15.54 60 3 47.46 3 32 C 3 16.54 15.54 4 31 4 C 46.46 4 59 16.54 59 32 C 59 47.46 46.46 60 31 60 L 31 60 Z M 31 0 C 13.33 0 -1 14.32 -1 32 C -1 49.68 13.33 64 31 64 C 48.67 64 63 49.68 63 32 C 63 14.32 48.67 0 31 0 L 31 0 Z M 40.07 30.24 L 24.76 14.92 C 23.98 14.14 22.71 14.14 21.93 14.92 C 21.15 15.72 21.15 16.98 21.93 17.76 L 36.17 32 L 21.93 46.24 C 21.15 47.02 21.15 48.28 21.93 49.08 C 22.71 49.86 23.98 49.86 24.76 49.08 L 40.07 33.76 C 40.55 33.28 40.7 32.62 40.59 32 C 40.7 31.38 40.55 30.72 40.07 30.24 L 40.07 30.24 Z M 40.07 30.24" />
</svg>